<svg xmlns="http://www.w3.org/2000/svg" width="299" height="32" fill="none" viewBox="0 0 299 32"><g clip-path="url(#a)"><mask id="b" width="299" height="32" x="0" y="0" maskUnits="userSpaceOnUse" style="mask-type:luminance"><path fill="#fff" d="M299 .889H0V31.11h299z"/></mask><g fill="#262626" mask="url(#b)"><path d="m262.078 21.299-6.65-15.753-6.692 15.753zm7.828-.096v9.908h-4.535V25.66h-19.792v5.45h-4.533v-9.907h2.705L252.42.889h6.102l8.669 20.314z"/><path fill-rule="evenodd" d="M287.244 6.81c.156-1.475 1.534-3.838 1.882-5.478h-3.945l-1.482 3.794c-1.248-.078-2.306-.55-3.91-.593-10.048-.244-12.172 11.662-1.492 15.29l-2.306 6.376 3.962-.035c.504-1.622 1.422-4.065 2.117-5.608 6.744-.34 6.363-1.387 8.954-1.754.981 1.719 1.197 6.29 1.872 7.397h3.606c-.224-3.34-1.898-8.243-1.898-9.115 1.388-.942 3.46-1.84 4.414-2.913-.183-.349-1.891-2.634-2.202-2.878-1.007.384-2.333 1.727-3.746 2.25-.442-.532-.849-1.387-1.266-2.032-1.04-1.596-1.559-2.085-2.825-3.315-.564-.55-1.11-.81-1.726-1.378m-7.629 9.394c-1.968-.096-5.244-2.791-4.517-5.39.755-2.704 4.318-2.87 7.24-2.102-.139 1.038-2.177 6.306-2.723 7.492m6.07-5.704c1.196.445 3.38 3.28 3.874 4.78-1.925.374-2.523 1.15-6.104 1.413z" clip-rule="evenodd"/><path d="M218.089 5.346h-12.561V25.66h-4.672V.889h17.233z"/><path fill-rule="evenodd" d="M236.937 18.061c-.911 2.468-3.581 4.518-7.031 4.57-3.633.053-6.061-1.683-7.352-4.064-2.392-4.396-1.17-12.743 7.595-13.118l-.026-3.96c-4.786-.087-7.984 1.971-10.177 4.466-2.238 2.547-3.486 7.51-2.29 11.757 1.067 3.794 3.538 6.577 6.848 7.92 3.737 1.509 8.714 1.247 11.851-.768 7.378-4.727 7.951-16.729 1.04-18.83-4.368-1.327-8.486 1.796-8.694 5.695-.14 2.599.961 4.3 2.324 5.224 1.828 1.239 3.362 1.396 5.912 1.108m.927-4.082c-5.167 1.43-4.811-2.311-4.091-3.288.537-.733 4.204-2.155 4.091 3.288" clip-rule="evenodd"/><path d="M44.576 5.545c-1.933 0-3.606.61-4.993 1.832-1.396 1.221-2.254 2.791-2.584 4.71h15.12c-.2-1.98-.998-3.568-2.385-4.754q-2.093-1.779-5.15-1.779m.087-4.17c2.532 0 4.734.542 6.624 1.632s3.337 2.634 4.36 4.631q1.524 2.997 1.526 7.013c0 .698-.017 1.204-.052 1.535H36.94c.33 1.919 1.222 3.489 2.687 4.727q2.185 1.858 5.098 1.858c3.181 0 5.453-1.169 6.796-3.515h4.829c-.789 2.311-2.245 4.204-4.378 5.67-2.132 1.465-4.543 2.206-7.239 2.206q-3.589.002-6.502-1.657a11.8 11.8 0 0 1-4.534-4.605c-1.083-1.963-1.62-4.17-1.62-6.612s.537-4.649 1.62-6.611 2.584-3.498 4.508-4.605c1.916-1.108 4.075-1.658 6.476-1.658zm93.619 4.161c-1.933 0-3.606.61-4.993 1.832-1.396 1.221-2.254 2.791-2.584 4.71h15.119c-.199-1.98-.997-3.568-2.384-4.754q-2.093-1.779-5.149-1.779m.086-4.17c2.532 0 4.734.542 6.624 1.632s3.337 2.634 4.36 4.631q1.524 2.997 1.526 7.013c0 .698-.017 1.204-.052 1.535h-20.19c.329 1.919 1.222 3.489 2.687 4.727q2.185 1.858 5.097 1.858c3.182 0 5.453-1.169 6.797-3.515h4.829c-.789 2.311-2.246 4.204-4.378 5.67-2.133 1.465-4.543 2.206-7.239 2.206q-3.59.002-6.502-1.657a11.8 11.8 0 0 1-4.534-4.605c-1.083-1.963-1.621-4.17-1.621-6.612s.538-4.649 1.621-6.611q1.624-2.944 4.508-4.605c1.925-1.108 4.075-1.658 6.476-1.658zM87.966 22.292q2.263-.002 4.136-1.117c1.248-.741 2.228-1.77 2.956-3.07.72-1.308 1.083-2.747 1.083-4.335 0-1.587-.364-3.026-1.083-4.335a7.97 7.97 0 0 0-2.956-3.07c-1.249-.741-2.627-1.116-4.136-1.116-1.508 0-2.947.375-4.213 1.116s-2.254 1.77-2.982 3.07-1.084 2.748-1.084 4.335c0 1.588.364 3.027 1.084 4.335a7.9 7.9 0 0 0 2.982 3.07q1.899 1.115 4.213 1.117m0 4.352c-2.427 0-4.646-.567-6.649-1.71-2.002-1.142-3.58-2.695-4.725-4.657-1.153-1.963-1.725-4.134-1.725-6.516 0-2.38.572-4.552 1.725-6.515a12.65 12.65 0 0 1 4.725-4.658q3.006-1.711 6.65-1.71c2.427 0 4.585.568 6.57 1.71a12.64 12.64 0 0 1 4.7 4.658q1.726 2.944 1.724 6.515c0 2.382-.572 4.553-1.725 6.516a12.7 12.7 0 0 1-4.698 4.657c-1.986 1.143-4.179 1.71-6.572 1.71"/><path fill-rule="evenodd" d="M108.035 22.44V5.493c2.592-.035 6.372-.122 8.097.13 2.34.35 3.069 1.745 3.32 4.074l-.017-.017v.392c-1.821-.916-3.797-1.692-6.086-.741-1.612.68-2.965 2.137-2.982 4.474 0 .838.147 1.57.425 2.19.511 1.255 1.499 2.101 2.626 2.572 2.254.951 4.214.201 6.017-.706-.217 2.547-.91 4.056-3.355 4.422-1.708.253-5.444.175-8.037.14m-.008-20.907c-1.405-.026-4.135 0-4.656.06l.044 24.763h2.939v.017c6.051.027 14.46 1.17 16.723-5.329.442-1.265.546-2.948.312-4.37-.052-.296-.061-.575-.104-.785-.122-.724-.408-1.413-.495-2.032.061-.218.156-.523.295-.977q.012-.053.035-.104c.104-.315.217-.777.329-1.466.234-1.421.13-3.114-.312-4.37-2.063-5.93-9.267-5.495-15.11-5.355zm10.039 11.748c-1.283-1.037-4.049-1.308-4.014.846 0 .14.017.28.043.393.633 1.71 3.919.837 4.473-.55a2.5 2.5 0 0 0-.502-.697zM77.632 26.548c-.156-.367 0-.105-.234-.462l-7.386-9.935c-.382-.515-.728-1.02-1.075-1.483.32-.872 1.612-2.433 2.202-3.506C77.059.495 60.797-2.043 60.788 6.914c0 3.89 3.528 7.126 3.433 7.754l-8.713 11.88 4.985-.026c.373-.157 5.288-7.929 6.164-8.592l5.964 8.61h4.994zM66.631 11.38c-.433-.262-.815-1.003-1.023-1.422-.252-.506-.529-1.073-.668-1.63-.38-1.51.061-2.766 1.57-2.827 2.704-.104 2.045 3.629.13 5.879zm97.147.079c1.422.174 4.196 1.168 4.889 1.945-1.049 1.072-2.869 2.05-4.933 2.486zm17.633 15.569v.026h-.858c-.643.017-1.092.035-1.43 0h-.911c0-1.37-1.699-4.736-2.315-5.87-1.681-3.097-2.635-3.803-3.658-5.155-1.352.366-2.922 2.948-8.513 3.846v7.11h-4.283l-.017-6.996c-10.629-2.067-10.707-10.71 0-12.787v-5.59l4.291.017v5.783c3.719.427 6.337 1.613 7.698 2.756 1.474-1.77 2.35-5.975 2.731-8.54h4.283a24.2 24.2 0 0 1-2.272 8.653c-.364.768-1.109 1.919-1.3 2.6.85 1.055 1.751 1.796 2.618 3.008.754 1.056 1.482 2.094 2.176 3.332.963 1.727 2.809 5.705 3.138 7.798-.521 0-.979 0-1.378.017zm-22.02-11.051c-4.412-.122-5.028-4.527.035-4.797zM14.313 19.23c1.326.507 2.635.62 3.953 1.048v6.192l4.135.018v-6.001c3.268-.637 7.56-1.483 7.56-6.132 0-4.265-3.884-5.451-7.551-6.166l-.018-6.472h-4.117v6.576c-5.375.864-7.066 2.992-8.184 3.699-2.289-1.84-5.193-7.432-5.878-10.275H0C.416 3.784 2.08 7.343 2.965 8.93c2.497 4.483 6.51 8.452 11.348 10.3m3.918-2.843c-1.36-.165-4.03-1.125-4.698-1.866 1.014-1.03 2.765-1.971 4.742-2.39zm4.205-4.343c4.248.113 4.829 4.352-.035 4.614z" clip-rule="evenodd"/></g></g><defs><clipPath id="a"><path fill="#fff" d="M0 0h299v32H0z"/></clipPath></defs></svg>