<svg xmlns="http://www.w3.org/2000/svg" width="32" height="26" fill="none" viewBox="0 0 32 26"><path fill="#fff" d="M.84 11.852q.111-.054.22-.103a144 144 0 0 1 3.767-1.627c.068 0 .182-.077.247-.103l.292-.122.56-.237 1.123-.47 2.243-.944 4.488-1.885 4.488-1.885 4.488-1.884 4.49-1.885c.332-.141.692-.35 1.049-.412.3-.052.591-.153.893-.209.571-.106 1.201-.15 1.749.083.189.081.363.195.509.337.694.675.597 1.782.45 2.731l-3.072 19.84c-.14.907-.33 1.903-1.06 2.476-.618.485-1.496.54-2.258.334-.762-.208-1.435-.642-2.094-1.07l-8.209-5.335c-.65-.422-1.374-.974-1.367-1.74.004-.463.285-.874.571-1.24 2.378-3.045 5.808-5.137 8.36-8.041.36-.41.643-1.15.149-1.385-.294-.141-.633.05-.9.232l-10.118 6.901c-1.1.75-2.254 1.523-3.58 1.707-1.188.166-2.382-.159-3.53-.49q-1.445-.418-2.88-.858c-.51-.155-1.035-.322-1.428-.674s-.62-.944-.382-1.413c.148-.294.437-.48.74-.63z"/></svg>