<svg width="32" height="26" viewBox="0 0 32 26" fill="none" xmlns="http://www.w3.org/2000/svg">
<path d="M0.840711 11.8519C0.914199 11.8159 0.98772 11.7816 1.05937 11.7491C2.30498 11.1827 3.56713 10.6525 4.82744 10.1222C4.89541 10.1222 5.00929 10.0446 5.07359 10.0193C5.17096 9.97785 5.26835 9.93817 5.36572 9.89669C5.55311 9.81732 5.74052 9.73976 5.92607 9.66039C6.30086 9.50347 6.67378 9.34654 7.04857 9.18961L9.29176 8.24625C10.7872 7.61855 12.2846 6.98904 13.78 6.36134C15.2755 5.73364 16.7728 5.10413 18.2683 4.47642C19.7637 3.84872 21.261 3.21922 22.7565 2.59152C24.252 1.96382 25.7493 1.33431 27.2448 0.706605C27.5773 0.565913 27.9374 0.356674 28.2938 0.295346C28.5933 0.243038 28.8853 0.142033 29.1866 0.0861169C29.758 -0.020304 30.3882 -0.0635899 30.9356 0.169093C31.1249 0.250262 31.2994 0.363897 31.4446 0.506392C32.139 1.18099 32.0416 2.28848 31.8947 3.23725C30.8713 9.84978 29.848 16.4641 28.8229 23.0766C28.6833 23.9839 28.4922 24.9796 27.7628 25.5532C27.1455 26.0384 26.2673 26.0925 25.5049 25.8869C24.7425 25.6794 24.0701 25.2447 23.4105 24.8173C20.675 23.0388 17.9376 21.2603 15.202 19.4818C14.5517 19.0597 13.8278 18.5078 13.8352 17.7412C13.8388 17.2794 14.1199 16.8682 14.4065 16.502C16.7838 13.4573 20.2138 11.3649 22.7657 8.4609C23.1258 8.05145 23.4087 7.31192 22.9145 7.07563C22.6206 6.93493 22.2825 7.12613 22.0143 7.30831C18.6412 9.60808 15.27 11.9097 11.8969 14.2094C10.7964 14.9598 9.6427 15.7318 8.31625 15.9158C7.12943 16.0817 5.93527 15.757 4.78703 15.4252C3.82434 15.1474 2.86346 14.8624 1.90629 14.5684C1.39739 14.4133 0.871949 14.2455 0.478791 13.8938C0.0856337 13.542 -0.140309 12.9504 0.0966873 12.4814C0.245499 12.1874 0.533943 12.0016 0.837078 11.8501L0.840711 11.8519Z" fill="white"/>
</svg>
