<svg width="299" height="32" viewBox="0 0 299 32" fill="none" xmlns="http://www.w3.org/2000/svg">
<g clip-path="url(#clip0_4011_721)">
<mask id="mask0_4011_721" style="mask-type:luminance" maskUnits="userSpaceOnUse" x="0" y="0" width="299" height="32">
<path d="M299 0.888672H0V31.1109H299V0.888672Z" fill="white"/>
</mask>
<g mask="url(#mask0_4011_721)">
<path d="M262.078 21.2985L255.428 5.54629L248.736 21.2985H262.078ZM269.906 21.2026V31.1109H265.371V25.6595H245.579V31.1109H241.046V21.2026H243.751L252.42 0.888672H258.522L267.191 21.2026H269.897H269.906Z" fill="#262626"/>
<path fill-rule="evenodd" clip-rule="evenodd" d="M287.244 6.80954C287.4 5.33549 288.778 2.97179 289.126 1.33203H285.181L283.699 5.12616C282.451 5.04767 281.393 4.57666 279.789 4.53306C269.741 4.28884 267.617 16.1946 278.297 19.823L275.991 26.1988L279.953 26.164C280.457 24.5417 281.375 22.0994 282.07 20.5556C288.814 20.2155 288.433 19.1688 291.024 18.8025C292.005 20.5208 292.221 25.0911 292.896 26.1988H296.502C296.278 22.8584 294.604 17.9565 294.604 17.0842C295.992 16.1422 298.064 15.2438 299.018 14.171C298.835 13.8221 297.127 11.5369 296.816 11.2927C295.809 11.6765 294.483 13.0197 293.07 13.543C292.628 13.011 292.221 12.1562 291.804 11.5108C290.764 9.91462 290.245 9.42618 288.979 8.19636C288.415 7.64687 287.869 7.3852 287.253 6.81826M279.624 16.212C277.656 16.1161 274.38 13.4209 275.107 10.8217C275.862 8.11786 279.425 7.95213 282.347 8.71969C282.208 9.75762 280.17 15.0258 279.624 16.212ZM285.694 10.5077C286.89 10.9526 289.074 13.7872 289.568 15.2875C287.643 15.6625 287.045 16.4388 283.464 16.7005L285.694 10.5077Z" fill="#262626"/>
<path d="M218.089 5.34569H205.528V25.6595H200.856V0.888672H218.089V5.34569Z" fill="#262626"/>
<path fill-rule="evenodd" clip-rule="evenodd" d="M236.937 18.0611C236.026 20.5295 233.356 22.5791 229.906 22.6316C226.273 22.6838 223.845 20.9482 222.554 18.567C220.162 14.171 221.384 5.8239 230.149 5.44886L230.123 1.489C225.337 1.40178 222.139 3.46021 219.946 5.95473C217.708 8.50161 216.46 13.4645 217.656 17.7122C218.723 21.5064 221.194 24.2886 224.504 25.6319C228.241 27.1409 233.218 26.8792 236.355 24.8643C243.733 20.137 244.306 8.13528 237.395 6.03324C233.027 4.70748 228.909 7.83 228.701 11.7288C228.561 14.328 229.662 16.0288 231.025 16.9534C232.853 18.1919 234.387 18.3489 236.937 18.0611ZM237.864 13.9791C232.697 15.4095 233.053 11.6677 233.773 10.6909C234.31 9.9582 237.977 8.53649 237.864 13.9791Z" fill="#262626"/>
<path d="M44.5763 5.54522C42.643 5.54522 40.9698 6.15578 39.5828 7.37688C38.187 8.59798 37.3288 10.168 36.9994 12.0868H52.1184C51.9189 10.1069 51.1215 8.51948 49.7345 7.33327C48.3386 6.14705 46.6222 5.55395 44.5849 5.55395M44.6715 1.38477C47.203 1.38477 49.405 1.92554 51.2948 3.01581C53.1848 4.10607 54.6325 5.6499 55.6554 7.64726C56.6696 9.64463 57.1812 11.9822 57.1812 14.6599C57.1812 15.3576 57.1638 15.8635 57.1292 16.195H36.9387C37.2681 18.1139 38.161 19.6838 39.6261 20.9224C41.0826 22.161 42.7817 22.7802 44.7236 22.7802C47.9052 22.7802 50.1765 21.6115 51.5202 19.2651H56.349C55.5601 21.5764 54.1036 23.4692 51.971 24.9345C49.8385 26.3999 47.4284 27.1412 44.7322 27.1412C42.3395 27.1412 40.1724 26.5917 38.2303 25.484C36.2972 24.3763 34.78 22.8411 33.6964 20.8788C32.6127 18.9163 32.0752 16.7096 32.0752 14.2674C32.0752 11.8252 32.6127 9.61846 33.6964 7.65599C34.78 5.6935 36.2798 4.15841 38.2043 3.05069C40.1203 1.94298 42.279 1.39349 44.6803 1.39349L44.6715 1.38477Z" fill="#262626"/>
<path d="M138.29 5.54522C136.357 5.54522 134.684 6.15578 133.297 7.37688C131.901 8.59798 131.043 10.168 130.713 12.0868H145.832C145.633 10.1069 144.835 8.51948 143.448 7.33327C142.053 6.14705 140.336 5.55395 138.299 5.55395M138.385 1.38477C140.917 1.38477 143.119 1.92554 145.009 3.01581C146.899 4.10607 148.346 5.6499 149.369 7.64726C150.384 9.64463 150.895 11.9822 150.895 14.6599C150.895 15.3576 150.878 15.8635 150.843 16.195H130.653C130.982 18.1139 131.875 19.6838 133.34 20.9224C134.796 22.161 136.496 22.7802 138.437 22.7802C141.619 22.7802 143.89 21.6115 145.234 19.2651H150.063C149.274 21.5764 147.817 23.4692 145.685 24.9345C143.552 26.3999 141.142 27.1412 138.446 27.1412C136.053 27.1412 133.886 26.5917 131.944 25.484C130.011 24.3763 128.494 22.8411 127.41 20.8788C126.327 18.9163 125.789 16.7096 125.789 14.2674C125.789 11.8252 126.327 9.61846 127.41 7.65599C128.494 5.6935 129.994 4.15841 131.918 3.05069C133.843 1.94298 135.993 1.39349 138.394 1.39349L138.385 1.38477Z" fill="#262626"/>
<path d="M87.9664 22.2917C89.4749 22.2917 90.8531 21.9167 92.1016 21.1754C93.3499 20.4339 94.3296 19.4047 95.0577 18.1052C95.7773 16.7968 96.1415 15.3577 96.1415 13.7702C96.1415 12.1828 95.7773 10.7436 95.0577 9.43532C94.3382 8.127 93.3499 7.10652 92.1016 6.36513C90.8531 5.62375 89.4749 5.24871 87.9664 5.24871C86.458 5.24871 85.0189 5.62375 83.7532 6.36513C82.4874 7.10652 81.4991 8.13573 80.7709 9.43532C80.0428 10.7349 79.6874 12.1828 79.6874 13.7702C79.6874 15.3577 80.0513 16.7968 80.7709 18.1052C81.4905 19.4134 82.4874 20.4339 83.7532 21.1754C85.0189 21.9167 86.4233 22.2917 87.9664 22.2917ZM87.9664 26.644C85.539 26.644 83.3198 26.0771 81.3172 24.9345C79.3146 23.7919 77.7367 22.2394 76.5924 20.2769C75.4394 18.3144 74.8672 16.1426 74.8672 13.7615C74.8672 11.3804 75.4394 9.20855 76.5924 7.24607C77.7455 5.28359 79.3146 3.73105 81.3172 2.58844C83.3198 1.44585 85.539 0.878906 87.9664 0.878906C90.3937 0.878906 92.5524 1.44585 94.5376 2.58844C96.5228 3.73105 98.092 5.28359 99.2362 7.24607C100.389 9.20855 100.961 11.3804 100.961 13.7615C100.961 16.1426 100.389 18.3144 99.2362 20.2769C98.0834 22.2394 96.5228 23.7919 94.5376 24.9345C92.5524 26.0771 90.3591 26.644 87.9664 26.644Z" fill="#262626"/>
<path fill-rule="evenodd" clip-rule="evenodd" d="M108.035 22.4402V5.49298C110.627 5.4581 114.407 5.37086 116.132 5.6238C118.472 5.97269 119.201 7.36823 119.452 9.69705L119.435 9.67961V10.0721C117.614 9.15628 115.638 8.38 113.349 9.33072C111.737 10.011 110.384 11.4676 110.367 13.8052C110.367 14.6425 110.514 15.3752 110.792 15.9944C111.303 17.2504 112.291 18.0965 113.418 18.5674C115.672 19.5182 117.632 18.7682 119.435 17.861C119.218 20.4078 118.525 21.9168 116.08 22.2832C114.372 22.536 110.636 22.4576 108.043 22.4227M108.035 1.51568C106.63 1.48951 103.9 1.51568 103.379 1.57674L103.423 26.3388H106.362V26.3564C112.413 26.3826 120.822 27.5251 123.085 21.0272C123.527 19.7625 123.631 18.0791 123.397 16.6573C123.345 16.3608 123.336 16.0816 123.293 15.8723C123.171 15.1484 122.885 14.4593 122.798 13.8401C122.859 13.622 122.954 13.3167 123.093 12.8632C123.102 12.8283 123.111 12.7934 123.128 12.7585C123.232 12.4445 123.345 11.9823 123.457 11.2932C123.691 9.8715 123.587 8.17939 123.145 6.92341C121.082 0.992351 113.878 1.42846 108.035 1.56801V1.51568ZM118.074 13.2644C116.791 12.2265 114.025 11.9561 114.06 14.1104C114.06 14.25 114.077 14.3896 114.103 14.5029C114.736 16.2125 118.022 15.3403 118.576 13.9535C118.455 13.6918 118.282 13.465 118.074 13.2557V13.2644Z" fill="#262626"/>
<path fill-rule="evenodd" clip-rule="evenodd" d="M77.6322 26.5478C77.476 26.1814 77.6322 26.4431 77.398 26.0855L70.012 16.151C69.6304 15.6364 69.2836 15.1305 68.937 14.6682C69.2576 13.796 70.5494 12.2348 71.1388 11.1619C77.0599 0.494754 60.7965 -2.04339 60.7879 6.91424C60.7879 10.8043 64.3163 14.0402 64.2208 14.6682L55.5083 26.5478L60.4932 26.5216C60.866 26.3647 65.7814 18.5933 66.6569 17.9303L72.6213 26.5391H77.6148L77.6322 26.5478ZM66.6309 11.38C66.1975 11.1183 65.8159 10.3769 65.6079 9.95828C65.3565 9.45239 65.0792 8.88544 64.9404 8.32724C64.5591 6.8183 65.0011 5.56232 66.5095 5.50127C69.2143 5.39659 68.5554 9.12967 66.6395 11.38H66.6309Z" fill="#262626"/>
<path fill-rule="evenodd" clip-rule="evenodd" d="M163.778 11.4586C165.2 11.6331 167.974 12.6274 168.667 13.4037C167.618 14.4765 165.798 15.4534 163.734 15.8895L163.778 11.4586ZM181.411 27.0276V27.0538H180.553C179.91 27.0712 179.461 27.0888 179.123 27.0538H178.212C178.212 25.6845 176.513 22.3178 175.897 21.1839C174.216 18.0874 173.262 17.381 172.239 16.029C170.887 16.3953 169.317 18.9771 163.726 19.8755V26.9841H159.443L159.426 19.9889C148.797 17.9217 148.719 9.27809 159.426 7.20221V1.61133L163.717 1.62877V7.41154C167.436 7.83894 170.054 9.02514 171.415 10.1677C172.889 8.39715 173.765 4.19307 174.146 1.62877H178.429C178.221 4.63791 177.423 7.62088 176.157 10.2811C175.793 11.0487 175.048 12.2 174.857 12.8803C175.707 13.9357 176.608 14.6771 177.475 15.8895C178.229 16.9449 178.957 17.9828 179.651 19.2214C180.614 20.9483 182.46 24.9256 182.789 27.0189C182.268 27.0189 181.81 27.0189 181.411 27.0363V27.0276ZM159.391 15.9767C154.979 15.8546 154.363 11.4499 159.426 11.1795L159.391 15.9767Z" fill="#262626"/>
<path fill-rule="evenodd" clip-rule="evenodd" d="M14.3128 19.2308C15.6392 19.7368 16.9483 19.8502 18.266 20.2776V26.4703L22.4012 26.4877V20.4868C25.6694 19.8502 29.9607 19.0041 29.9607 14.3552C29.9607 10.09 26.0769 8.90385 22.4098 8.18863L22.3924 1.7168H18.2746V8.29329C12.8997 9.15679 11.2092 11.285 10.0909 11.9915C7.80225 10.1511 4.89809 4.56022 4.21321 1.7168H0C0.41612 3.78394 2.08061 7.34258 2.96486 8.93002C5.46158 13.4132 9.47542 17.3818 14.3128 19.2308ZM18.2313 16.3874C16.8702 16.2217 14.2001 15.2623 13.5326 14.5209C14.5469 13.4917 16.2981 12.5497 18.2746 12.131L18.2313 16.3874ZM22.4359 12.0438C26.6837 12.1572 27.2645 16.3962 22.4012 16.6578L22.4359 12.0438Z" fill="#262626"/>
</g>
</g>
<defs>
<clipPath id="clip0_4011_721">
<rect width="299" height="32" fill="white"/>
</clipPath>
</defs>
</svg>
